<svg xmlns="http://www.w3.org/2000/svg" id="Layer_1" data-name="Layer 1" viewBox="0 0 24 24" width="512" height="512">
  <path d="M19.5,2h-1.5V.5c0-.276-.224-.5-.5-.5s-.5,.224-.5,.5v1.5H7V.5c0-.276-.224-.5-.5-.5s-.5,.224-.5,.5v1.5h-1.5C2.019,2,0,4.019,0,6.5v13c0,2.481,2.019,4.5,4.5,4.5h4c.276,0,.5-.224,.5-.5s-.224-.5-.5-.5H4.5c-1.93,0-3.5-1.57-3.5-3.5V9H23.5c.276,0,.5-.224,.5-.5v-2c0-2.481-2.019-4.5-4.5-4.5Zm3.5,6H1v-1.5c0-1.93,1.57-3.5,3.5-3.5h15c1.93,0,3.5,1.57,3.5,3.5v1.5Zm-3.268,3.732l-7.707,7.707c-.651,.651-1.025,1.554-1.025,2.475v1.586c0,.276,.224,.5,.5,.5h1.586c.936,0,1.814-.364,2.475-1.025l7.707-7.707c.473-.472,.732-1.1,.732-1.768s-.26-1.296-.732-1.768c-.975-.975-2.561-.975-3.535,0Zm2.828,2.828l-7.707,7.707c-.472,.472-1.1,.732-1.768,.732h-1.086v-1.086c0-.658,.267-1.302,.732-1.768l7.707-7.707c.584-.585,1.537-.585,2.121,0,.283,.283,.439,.66,.439,1.061s-.156,.777-.439,1.061Z" fill="#0b2376"/>
</svg>
