<?xml version="1.0" standalone="no"?>
<!DOCTYPE svg PUBLIC "-//W3C//DTD SVG 20010904//EN"
 "http://www.w3.org/TR/2001/REC-SVG-20010904/DTD/svg10.dtd">
<svg version="1.0" xmlns="http://www.w3.org/2000/svg"
 width="96.000000pt" height="96.000000pt" viewBox="0 0 96.000000 96.000000"
 preserveAspectRatio="xMidYMid meet">

<g transform="translate(0.000000,96.000000) scale(0.100000,-0.100000)"
fill="#008967" stroke="none">
<path d="M108 894 c-56 -30 -58 -42 -58 -414 0 -375 1 -385 60 -415 23 -12 56
-15 143 -13 l112 3 0 25 c0 25 0 25 -118 30 -90 4 -120 9 -127 20 -6 9 -10
158 -10 352 0 293 2 339 16 352 13 14 48 16 232 16 119 0 224 -5 232 -10 12
-7 16 -39 20 -142 l5 -133 25 0 25 0 3 127 c5 216 2 218 -310 218 -178 -1
-229 -4 -250 -16z"/>
<path d="M214 695 c-4 -8 -4 -22 0 -30 5 -13 28 -15 148 -13 l143 3 0 25 0 25
-143 3 c-120 2 -143 0 -148 -13z"/>
<path d="M534 418 l-142 -143 -5 -79 c-9 -133 11 -152 145 -137 l82 9 138 139
c171 172 169 165 60 275 -110 110 -103 111 -278 -64z m169 -170 l-128 -126
-65 -4 -65 -3 3 65 4 65 126 127 127 128 62 -62 63 -63 -127 -127z"/>
<path d="M214 535 c-4 -8 -4 -22 0 -30 5 -13 28 -15 148 -13 l143 3 0 25 0 25
-143 3 c-120 2 -143 0 -148 -13z"/>
</g>
</svg>
