<?xml version="1.0" standalone="no"?>
<!DOCTYPE svg PUBLIC "-//W3C//DTD SVG 20010904//EN"
 "http://www.w3.org/TR/2001/REC-SVG-20010904/DTD/svg10.dtd">
<svg version="1.0" xmlns="http://www.w3.org/2000/svg"
 width="214.000000pt" height="246.000000pt" viewBox="0 0 214.000000 246.000000"
 preserveAspectRatio="xMidYMid meet">
<g transform="translate(0.000000,246.000000) scale(0.100000,-0.100000)"
 fill="#000" stroke="none">
<path d="M1006 2450 c-39 -12 -75 -47 -96 -94 -16 -35 -25 -41 -87 -61 -121
-38 -229 -102 -313 -185 -121 -120 -181 -222 -220 -374 -19 -73 -20 -110 -20
-504 l0 -425 -35 -64 c-19 -35 -35 -69 -35 -75 0 -6 -15 -33 -32 -59 l-33 -48
-65 -3 -65 -3 0 -145 0 -145 385 -5 384 -5 8 -38 c16 -77 74 -149 153 -189 58
-30 175 -29 234 1 70 36 126 101 147 171 l18 60 398 0 398 0 0 150 0 150 -67
0 -68 1 -77 115 -78 115 0 377 c0 477 -11 574 -82 717 -102 204 -273 350 -478
410 -62 18 -75 26 -81 47 -22 82 -112 133 -193 108z m108 -75 c14 -13 26 -29
26 -35 0 -6 -34 -10 -90 -10 -49 0 -90 3 -90 7 0 4 12 20 27 35 35 37 89 38
127 3z m86 -116 c230 -41 456 -238 535 -466 40 -115 45 -179 45 -607 l0 -408
75 -109 75 -108 -72 -3 c-65 -3 -73 -5 -73 -23 0 -19 8 -20 148 -23 l147 -3 0
-99 0 -100 -1015 0 -1015 0 0 100 0 100 763 2 c754 3 762 3 762 23 0 20 -8 20
-687 25 l-688 5 60 107 60 106 0 394 c0 422 6 510 44 619 36 102 80 170 176
269 76 78 97 93 190 138 98 47 147 61 275 76 37 4 123 -2 195 -15z m70 -2013
c0 -26 -20 -68 -50 -106 -39 -50 -105 -80 -172 -80 -95 0 -197 80 -214 168
l-6 32 221 0 c185 0 221 -2 221 -14z"/>
</g>
</svg>
