<?xml version="1.0" standalone="no"?>
<!DOCTYPE svg PUBLIC "-//W3C//DTD SVG 20010904//EN"
 "http://www.w3.org/TR/2001/REC-SVG-20010904/DTD/svg10.dtd">
<svg version="1.0" xmlns="http://www.w3.org/2000/svg"
 width="409.000000pt" height="128.000000pt" viewBox="0 0 409.000000 128.000000"
 preserveAspectRatio="xMidYMid meet">

<g transform="translate(0.000000,128.000000) scale(0.100000,-0.100000)"
fill="#000000" stroke="none">
<path d="M1535 1079 c-210 -13 -473 -70 -553 -119 -18 -11 -39 -20 -47 -20 -8
0 -15 -3 -15 -8 0 -4 -48 -20 -107 -36 -60 -16 -117 -34 -128 -41 -11 -6 -60
-24 -110 -39 -101 -31 -234 -92 -252 -116 -25 -31 -6 -119 37 -180 27 -38 156
-134 203 -151 20 -7 37 -16 37 -20 0 -41 570 -47 840 -9 36 5 94 12 129 16 35
3 105 20 155 36 54 17 140 35 216 43 69 8 145 19 170 25 98 21 290 50 338 50
32 0 81 11 134 31 130 48 236 43 558 -30 141 -32 141 -32 175 -154 17 -59 94
-229 118 -260 21 -25 83 -23 98 4 11 21 5 99 -11 129 -4 8 -11 51 -14 96 l-7
81 57 44 c31 24 97 64 147 89 72 36 94 52 108 80 30 57 18 76 -55 90 -51 9
-73 9 -131 -5 -38 -9 -79 -22 -90 -29 -37 -25 -85 -76 -85 -91 0 -26 25 -16
64 25 57 61 194 93 256 60 19 -10 20 -13 7 -33 -8 -12 -52 -42 -98 -67 -47
-25 -113 -65 -148 -90 l-64 -45 6 -85 c3 -47 10 -98 16 -113 12 -32 15 -127 4
-127 -32 2 -126 184 -157 304 -9 33 -23 67 -31 76 -20 22 -199 70 -315 86 -25
3 -65 12 -89 21 -71 25 -233 13 -343 -26 -52 -19 -106 -31 -135 -31 -27 0
-114 -11 -194 -25 -79 -14 -193 -32 -254 -40 -159 -22 -201 -30 -290 -58 -74
-23 -190 -38 -490 -67 -143 -13 -355 -13 -355 0 0 6 -37 10 -91 10 -58 0 -88
4 -84 10 4 6 -7 13 -24 16 -17 4 -36 13 -42 20 -6 8 -17 14 -23 14 -6 0 -26
13 -43 29 -18 16 -47 34 -66 40 -19 6 -44 21 -57 33 -28 27 -72 121 -65 140
11 27 258 138 309 138 3 0 6 -19 6 -42 1 -58 25 -88 77 -95 85 -11 149 32 159
109 6 41 3 49 -19 72 l-25 25 56 16 c32 9 77 29 102 44 108 66 404 120 677
124 95 1 173 4 173 8 0 30 -80 35 -325 18z m-692 -257 c13 -14 14 -25 5 -59
-8 -35 -16 -44 -49 -57 -39 -16 -89 -9 -89 13 0 4 -3 22 -6 39 -5 27 -2 32 37
56 52 30 80 33 102 8z"/>
<path d="M1998 1064 c-18 -18 -5 -24 52 -24 32 0 79 -6 102 -14 24 -8 61 -18
83 -21 68 -12 174 -45 249 -79 39 -18 109 -45 156 -60 47 -16 110 -41 140 -56
30 -15 78 -35 105 -46 54 -20 109 -50 195 -107 30 -20 69 -39 86 -43 33 -6
114 12 114 26 0 17 -20 21 -57 11 -40 -11 -56 -5 -170 72 -29 20 -76 44 -105
55 -29 11 -89 37 -132 57 -44 21 -116 50 -160 65 -45 16 -115 42 -156 60 -81
35 -179 64 -250 75 -25 4 -51 12 -58 17 -15 13 -184 23 -194 12z"/>
<path d="M1019 733 c-1 -5 0 -43 1 -85 2 -83 -18 -146 -59 -182 -11 -11 -21
-25 -21 -33 0 -39 71 16 95 74 8 18 14 65 15 105 2 119 1 128 -15 128 -8 0
-15 -3 -16 -7z"/>
<path d="M3317 603 c-15 -15 -5 -23 28 -23 24 0 35 5 35 15 0 15 -50 22 -63 8z"/>
</g>
</svg>
