<svg xmlns="http://www.w3.org/2000/svg" xmlns:xlink="http://www.w3.org/1999/xlink" viewBox="0,0,256,256" width="48px" height="48px"><g fill="#ffffff" fill-rule="nonzero" stroke="none" stroke-width="1" stroke-linecap="butt" stroke-linejoin="miter" stroke-miterlimit="10" stroke-dasharray="" stroke-dashoffset="0" font-family="none" font-weight="none" font-size="none" text-anchor="none" style="mix-blend-mode: normal"><g transform="scale(10.66667,10.66667)"><path d="M12,2c-5.523,0 -10,4.477 -10,10c0,5.523 4.477,10 10,10c5.523,0 10,-4.477 10,-10c0,-5.523 -4.477,-10 -10,-10zM14.586,16l-3.293,-3.293c-0.188,-0.188 -0.293,-0.442 -0.293,-0.707v-5c0,-0.552 0.448,-1 1,-1v0c0.552,0 1,0.448 1,1v4.586l3,3c0.39,0.39 0.39,1.024 0,1.414v0c-0.39,0.39 -1.024,0.39 -1.414,0z"></path></g></g></svg>