<svg xmlns="http://www.w3.org/2000/svg"  viewBox="0 0 16 16" width="16px" height="16px"><path fill="#0b2376" d="M 7.695313 3.019531 C 6.867188 3.011719 6.242188 3.050781 5.71875 3.320313 C 5.503906 3.429688 5.351563 3.570313 5.234375 3.734375 C 5.171875 3.816406 5.113281 3.890625 5.085938 4.0625 C 5.070313 4.144531 5.058594 4.28125 5.144531 4.429688 C 5.230469 4.582031 5.414063 4.683594 5.539063 4.703125 C 5.632813 4.714844 5.832031 4.796875 5.867188 4.84375 C 5.949219 4.960938 5.980469 5.046875 5.992188 5.09375 C 6.003906 5.140625 6 5.109375 6 5.109375 L 6 5.15625 C 6 5.15625 6.03125 5.648438 6.011719 6.15625 C 6 6.40625 5.976563 6.667969 5.9375 6.84375 C 5.898438 7.019531 5.800781 7.0625 5.941406 6.980469 C 5.84375 7.039063 5.878906 7.0625 5.757813 7 C 5.632813 6.941406 5.308594 6.667969 4.882813 5.902344 C 4.457031 5.132813 4.148438 4.734375 4.078125 4.648438 C 4.050781 4.570313 3.984375 4.410156 3.757813 4.234375 C 3.464844 4.007813 3.164063 4.003906 3.164063 4.003906 L 3.136719 4 L 0.953125 4 C 0.953125 4 0.828125 4.003906 0.683594 4.035156 C 0.539063 4.066406 0.332031 4.101563 0.136719 4.34375 C 0.136719 4.34375 0.132813 4.34375 0.132813 4.34375 C -0.0664063 4.597656 -0.03125 4.828125 -0.015625 4.96875 C 0.00390625 5.113281 0.046875 5.226563 0.046875 5.226563 L 0.0546875 5.25 L 0.0664063 5.273438 C 0.0664063 5.273438 1.734375 8.832031 3.726563 11 C 5.597656 13.039063 7.765625 13 7.765625 13 L 8.996094 13 L 9.023438 12.996094 C 9.023438 12.996094 9.417969 13.015625 9.75 12.644531 C 9.917969 12.453125 9.957031 12.273438 9.976563 12.140625 C 10 12.003906 10 11.894531 10 11.894531 L 10 11.925781 C 10 11.925781 10.015625 11.667969 10.085938 11.398438 C 10.121094 11.265625 10.171875 11.132813 10.21875 11.058594 C 10.242188 11.015625 10.242188 11.027344 10.25 11.015625 C 10.335938 11.078125 10.476563 11.222656 10.625 11.40625 C 10.929688 11.769531 11.273438 12.273438 11.753906 12.621094 C 12.101563 12.867188 12.429688 12.976563 12.679688 13.015625 C 12.847656 13.042969 12.96875 13.039063 13.050781 13.03125 L 14.75 13 L 14.765625 13 C 14.765625 13 15.117188 12.992188 15.46875 12.769531 C 15.640625 12.660156 15.839844 12.460938 15.90625 12.175781 C 15.976563 11.890625 15.898438 11.582031 15.734375 11.296875 C 15.789063 11.394531 15.722656 11.265625 15.671875 11.164063 C 15.621094 11.0625 15.542969 10.925781 15.425781 10.753906 C 15.199219 10.417969 14.824219 9.945313 14.203125 9.34375 C 13.910156 9.0625 13.722656 8.90625 13.605469 8.796875 C 13.640625 8.746094 13.644531 8.742188 13.777344 8.585938 C 13.988281 8.339844 14.296875 7.976563 14.6875 7.433594 C 15.15625 6.777344 15.496094 6.242188 15.714844 5.796875 C 15.933594 5.355469 16.109375 4.988281 15.914063 4.535156 C 15.808594 4.289063 15.621094 4.195313 15.484375 4.136719 C 15.34375 4.078125 15.21875 4.054688 15.101563 4.035156 C 14.871094 4 14.667969 4 14.667969 4 L 12.6875 4.015625 C 12.628906 4.003906 12.402344 3.960938 12.109375 4.148438 C 11.820313 4.328125 11.753906 4.519531 11.738281 4.578125 C 11.691406 4.644531 11.363281 5.109375 10.90625 5.921875 C 10.445313 6.742188 10.132813 6.964844 10.09375 6.984375 C 10.082031 6.972656 10.105469 6.976563 10.050781 6.945313 C 10.027344 6.925781 10.003906 6.910156 9.984375 6.699219 C 9.96875 6.488281 9.988281 6.15625 9.988281 5.765625 C 9.988281 4.925781 10.0625 4.488281 10.019531 4.070313 C 10 3.859375 9.914063 3.601563 9.726563 3.429688 C 9.539063 3.261719 9.335938 3.199219 9.125 3.144531 C 8.792969 3.0625 8.34375 3.027344 7.695313 3.019531 Z M 7.6875 4.019531 C 8.292969 4.027344 8.71875 4.074219 8.875 4.113281 C 9.007813 4.148438 9.027344 4.164063 9.023438 4.15625 C 9.023438 4.164063 9.023438 4.160156 9.023438 4.171875 C 9.039063 4.339844 8.988281 4.878906 8.988281 5.765625 C 8.988281 6.113281 8.960938 6.449219 8.988281 6.785156 C 9.015625 7.121094 9.136719 7.53125 9.492188 7.773438 L 9.496094 7.773438 C 9.453125 7.746094 9.945313 8.113281 10.414063 7.945313 C 10.882813 7.773438 11.253906 7.34375 11.78125 6.410156 C 12.242188 5.582031 12.582031 5.117188 12.582031 5.117188 L 12.613281 5.070313 L 12.636719 5.023438 C 12.636719 5.023438 12.628906 5.019531 12.636719 5.015625 L 14.667969 5 C 14.667969 5 14.808594 5 14.945313 5.023438 C 14.949219 5.023438 14.953125 5.023438 14.957031 5.023438 C 14.9375 5.03125 14.953125 5.082031 14.816406 5.359375 C 14.640625 5.714844 14.324219 6.222656 13.875 6.851563 C 13.503906 7.363281 13.226563 7.695313 13.019531 7.9375 C 12.8125 8.175781 12.65625 8.289063 12.554688 8.601563 C 12.503906 8.753906 12.515625 8.980469 12.589844 9.132813 C 12.660156 9.28125 12.746094 9.363281 12.832031 9.445313 C 13.003906 9.609375 13.207031 9.769531 13.503906 10.0625 C 14.085938 10.625 14.414063 11.039063 14.597656 11.3125 C 14.691406 11.453125 14.746094 11.550781 14.78125 11.621094 C 14.816406 11.691406 14.792969 11.664063 14.871094 11.796875 C 14.9375 11.917969 14.925781 11.933594 14.925781 11.925781 C 14.859375 11.964844 14.691406 12 14.6875 12 L 12.988281 12.03125 L 12.941406 12.042969 C 12.941406 12.042969 12.945313 12.046875 12.839844 12.03125 C 12.730469 12.011719 12.558594 11.964844 12.339844 11.808594 C 12.070313 11.617188 11.730469 11.171875 11.394531 10.765625 C 11.230469 10.566406 11.0625 10.371094 10.851563 10.214844 C 10.640625 10.058594 10.308594 9.914063 9.96875 10.027344 C 9.675781 10.121094 9.484375 10.335938 9.363281 10.535156 C 9.242188 10.738281 9.171875 10.949219 9.117188 11.140625 C 9.015625 11.527344 9 11.875 9 11.875 L 9 11.90625 C 9 11.90625 9 11.929688 8.992188 11.964844 C 8.972656 11.972656 8.945313 11.992188 8.929688 12 L 7.734375 12 C 7.734375 12 6.082031 12.085938 4.460938 10.328125 C 2.726563 8.433594 1.183594 5.265625 1.054688 5 L 3.066406 5 C 3.085938 5.007813 3.15625 5.035156 3.148438 5.03125 C 3.101563 4.992188 3.171875 5.078125 3.171875 5.078125 L 3.203125 5.152344 L 3.257813 5.214844 C 3.257813 5.214844 3.566406 5.589844 4.007813 6.386719 C 4.480469 7.242188 4.878906 7.6875 5.324219 7.902344 C 5.769531 8.117188 6.238281 7.964844 6.4375 7.851563 C 6.808594 7.636719 6.851563 7.335938 6.914063 7.058594 C 6.976563 6.78125 6.996094 6.484375 7.007813 6.195313 C 7.03125 5.640625 7 5.167969 7 5.132813 C 6.996094 5.121094 6.996094 4.984375 6.957031 4.835938 C 6.914063 4.683594 6.835938 4.484375 6.6875 4.273438 C 6.625 4.1875 6.566406 4.230469 6.5 4.167969 C 6.777344 4.089844 7.074219 4.011719 7.6875 4.019531 Z"/></svg>